
        <svg xmlns="http://www.w3.org/2000/svg" xmlns:xlink="http://www.w3.org/1999/xlink" version="1.1" width="3196.72131147541" height="503.91904288543003" viewBox="0 0 3196.72131147541 503.91904288543003">
			
			<g transform="scale(9.836065573770492) translate(10, 10)">
				<defs id="SvgjsDefs6567"/><g id="SvgjsG6568" featureKey="tOsHRK-0" transform="matrix(2.2849461896968926,0,0,2.2849461896968926,-18.27956951757514,-98.39247091575395)" fill="#000"><title xmlns="http://www.w3.org/2000/svg">MorseR</title><desc xmlns="http://www.w3.org/2000/svg">Created with Sketch.</desc><g xmlns="http://www.w3.org/2000/svg" stroke="none" stroke-width="1" fill-rule="evenodd"><rect x="8" y="47" width="6" height="6" rx="3"/><rect x="20.6" y="47" width="12" height="6" rx="3"/><rect x="39.2" y="47" width="6" height="6" rx="3"/></g></g><g id="SvgjsG6569" featureKey="dVtZHI-0" transform="matrix(2.2302060956675245,0,0,2.2302060956675245,102.38653864559627,-13.372535465895314)" fill="#000"><path d="M2.5488 20 q-0.576171875 0 -0.9765625 -0.4052734375 t-0.40039 -0.97168 l0 -5.625 q0 -0.56640625 0.400390625 -0.9716796875 t0.97656 -0.40527 l4.8633 0 q0.87890625 0 1.201171875 -0.625 q0.205078125 -0.380859375 0.205078125 -0.810546875 q0 -0.419921875 -0.205078125 -0.80078125 q-0.322265625 -0.634765625 -1.201171875 -0.634765625 q-0.56640625 0 -0.9716796875 -0.400390625 t-0.40527 -0.97656 q0 -0.56640625 0.4052734375 -0.9716796875 t0.97168 -0.40527 q1.875 0 3.125 1.34765625 q1.03515625 1.240234375 1.03515625 2.841796875 q0 1.611328125 -1.03515625 2.841796875 q-1.25 1.34765625 -3.125 1.34765625 l-3.4863 0 l0 4.248 q0 0.56640625 -0.4052734375 0.9716796875 t-0.97168 0.40527 z M10.186 20 q-0.37109375 0 -0.712890625 -0.205078125 t-0.51758 -0.56641 l-1.2012 -2.4121 q-0.13671875 -0.3125 -0.13671875 -0.615234375 q0 -0.8203125 0.771484375 -1.23046875 q0.3125 -0.146484375 0.615234375 -0.146484375 q0.8203125 0 1.220703125 0.771484375 l1.2012 2.4219 q0.13671875 0.302734375 0.13671875 0.615234375 q0 0.8203125 -0.771484375 1.220703125 q-0.302734375 0.146484375 -0.60546875 0.146484375 z M21.884803124999998 20 l-7.1777 0 q-0.576171875 0 -0.9765625 -0.4052734375 t-0.40039 -0.97168 t0.40039 -0.97168 t0.97656 -0.40527 l7.1777 0 q0.56640625 0 0.9716796875 0.4052734375 t0.40527 0.97168 t-0.40527 0.97168 t-0.97168 0.40527 z M21.884803124999998 8.75 l-7.1777 0 q-0.576171875 0 -0.9765625 -0.400390625 t-0.40039 -0.97656 q0 -0.56640625 0.400390625 -0.9716796875 t0.97656 -0.40527 l7.1777 0 q0.56640625 0 0.9716796875 0.4052734375 t0.40527 0.97168 q0 0.576171875 -0.4052734375 0.9765625 t-0.97168 0.40039 z M21.884803124999998 14.375 l-7.1777 0 q-0.576171875 0 -0.9765625 -0.400390625 t-0.40039 -0.97656 q0 -0.56640625 0.400390625 -0.9716796875 t0.97656 -0.40527 l7.1777 0 q0.56640625 0 0.9716796875 0.4052734375 t0.40527 0.97168 q0 0.576171875 -0.4052734375 0.9765625 t-0.97168 0.40039 z M26.689425 20 q0.576171875 0 0.9765625 -0.400390625 t0.40039 -0.97656 l0 -6.9043 l2.8027 3.9746 q0.44921875 0.5859375 1.123046875 0.5859375 q0.6640625 0 1.1328125 -0.5859375 l5.3027 -7.5195 q0.244140625 -0.380859375 0.244140625 -0.791015625 q0 -0.1171875 -0.0537109375 -0.44921875 t-0.53223 -0.67383 q-0.380859375 -0.263671875 -0.791015625 -0.263671875 q-0.1171875 0 -0.4443359375 0.0634765625 t-0.67871 0.52246 l-4.1797 5.9277 l-4.1699 -5.9277 q-0.46875 -0.576171875 -1.123046875 -0.576171875 q-0.703125 0 -1.123046875 0.56640625 q-0.263671875 0.361328125 -0.263671875 0.80078125 l0 11.25 q0 0.576171875 0.400390625 0.9765625 t0.97656 0.40039 z M47.82225 20 q1.923828125 0 3.515625 -0.947265625 t2.5391 -2.5342 t0.94727 -3.5107 q0 -1.865234375 -0.95703125 -3.53515625 q-0.927734375 -1.572265625 -2.490234375 -2.509765625 q-0.3515625 -0.185546875 -0.712890625 -0.185546875 q-0.166015625 0 -0.517578125 0.087890625 t-0.66406 0.58594 q-0.185546875 0.33203125 -0.185546875 0.68359375 q0 0.17578125 0.0927734375 0.537109375 t0.58105 0.66406 q0.986328125 0.5859375 1.54296875 1.5625 t0.55664 2.1094 q0 1.162109375 -0.5712890625 2.124023438 t-1.5381 1.5381 t-2.1387 0.57617 q-1.162109375 0 -2.12890625 -0.576171875 t-1.543 -1.5381 t-0.57617 -2.124 q0 -0.3515625 0.05859375 -0.693359375 l0.019531 -0.21484 q0 -0.44921875 -0.29296875 -0.849609375 q-0.37109375 -0.517578125 -1.09375 -0.517578125 q-0.44921875 0 -0.849609375 0.2880859375 t-0.49805 0.85449 t-0.097656 1.1328 q0 1.923828125 0.947265625 3.510742188 t2.5342 2.5342 t3.5205 0.94727 z M58.34958125 20 q-0.576171875 0 -0.9765625 -0.4052734375 t-0.40039 -0.97168 l0 -5.625 q0 -0.56640625 0.400390625 -0.9716796875 t0.97656 -0.40527 l4.8633 0 q0.87890625 0 1.201171875 -0.625 q0.205078125 -0.380859375 0.205078125 -0.810546875 q0 -0.419921875 -0.205078125 -0.80078125 q-0.322265625 -0.634765625 -1.201171875 -0.634765625 q-0.56640625 0 -0.9716796875 -0.400390625 t-0.40527 -0.97656 q0 -0.56640625 0.4052734375 -0.9716796875 t0.97168 -0.40527 q1.875 0 3.125 1.34765625 q1.03515625 1.240234375 1.03515625 2.841796875 q0 1.611328125 -1.03515625 2.841796875 q-1.25 1.34765625 -3.125 1.34765625 l-3.4863 0 l0 4.248 q0 0.56640625 -0.4052734375 0.9716796875 t-0.97168 0.40527 z M65.98678125 20 q-0.37109375 0 -0.712890625 -0.205078125 t-0.51758 -0.56641 l-1.2012 -2.4121 q-0.13671875 -0.3125 -0.13671875 -0.615234375 q0 -0.8203125 0.771484375 -1.23046875 q0.3125 -0.146484375 0.615234375 -0.146484375 q0.8203125 0 1.220703125 0.771484375 l1.2012 2.4219 q0.13671875 0.302734375 0.13671875 0.615234375 q0 0.8203125 -0.771484375 1.220703125 q-0.302734375 0.146484375 -0.60546875 0.146484375 z M73.847684375 20 q-1.30859375 0 -2.485351563 -0.4638671875 t-1.9678 -1.3037 q-0.361328125 -0.4296875 -0.361328125 -0.9375 q0 -0.029296875 0.009765625 -0.322265625 t0.43945 -0.69336 q0.41015625 -0.3515625 0.908203125 -0.3515625 q0.0390625 0 0.33203125 0.009765625 t0.70313 0.43945 q0.576171875 0.576171875 1.591796875 0.78125 q0.4296875 0.078125 0.83984375 0.078125 q0.576171875 0 1.123046875 -0.15625 q0.810546875 -0.29296875 0.9765625 -0.791015625 q0.068359375 -0.224609375 0.068359375 -0.44921875 t-0.11719 -0.42969 q-0.234375 -0.419921875 -2.32421875 -0.947265625 q-0.791015625 -0.205078125 -1.572265625 -0.46875 q-3.076171875 -1.0546875 -3.076171875 -3.80859375 q0 -2.20703125 1.884765625 -3.3984375 q1.2890625 -0.791015625 3.037109375 -0.791015625 q0.6640625 0 1.059570313 0.4052734375 t0.39551 0.99121 q-0.029296875 0.576171875 -0.4248046875 0.966796875 t-0.95215 0.39063 l-0.087891 0 q-1.142578125 0 -1.787109375 0.52734375 q-0.380859375 0.3125 -0.380859375 0.927734375 q0 0.29296875 0.1416015625 0.5419921875 t0.71289 0.49805 t1.7627 0.55176 q0.751953125 0.1953125 1.50390625 0.439453125 t1.3867 0.66406 q1.58203125 1.064453125 1.58203125 2.919921875 q0 0.224609375 -0.01953125 0.458984375 q-0.302734375 2.5 -2.91015625 3.41796875 q-0.95703125 0.302734375 -1.9921875 0.302734375 z M77.275384375 10.0391 q-0.576171875 0 -0.9765625 -0.4052734375 t-0.40039 -0.97168 q0 -0.576171875 0.400390625 -0.9765625 t0.97656 -0.40039 q0.56640625 0 0.9716796875 0.400390625 t0.40527 0.97656 q0 0.56640625 -0.4052734375 0.9716796875 t-0.97168 0.40527 z M89.47269375 20 l-7.1777 0 q-0.576171875 0 -0.9765625 -0.4052734375 t-0.40039 -0.97168 t0.40039 -0.97168 t0.97656 -0.40527 l7.1777 0 q0.56640625 0 0.9716796875 0.4052734375 t0.40527 0.97168 t-0.40527 0.97168 t-0.97168 0.40527 z M89.47269375 8.75 l-7.1777 0 q-0.576171875 0 -0.9765625 -0.400390625 t-0.40039 -0.97656 q0 -0.56640625 0.400390625 -0.9716796875 t0.97656 -0.40527 l7.1777 0 q0.56640625 0 0.9716796875 0.4052734375 t0.40527 0.97168 q0 0.576171875 -0.4052734375 0.9765625 t-0.97168 0.40039 z M89.47269375 14.375 l-7.1777 0 q-0.576171875 0 -0.9765625 -0.400390625 t-0.40039 -0.97656 q0 -0.56640625 0.400390625 -0.9716796875 t0.97656 -0.40527 l7.1777 0 q0.56640625 0 0.9716796875 0.4052734375 t0.40527 0.97168 q0 0.576171875 -0.4052734375 0.9765625 t-0.97168 0.40039 z"/></g>
			</g>
		</svg>
	